<svg xmlns="http://www.w3.org/2000/svg" width="172" height="140" viewBox="0 0 172 140"><defs><style>.a{fill:rgba(255,163,5,0.14);}</style></defs><g transform="translate(-233 -511)"><circle class="a" cx="6" cy="6" r="6" transform="translate(233 511)"/><circle class="a" cx="6" cy="6" r="6" transform="translate(265 511)"/><circle class="a" cx="6" cy="6" r="6" transform="translate(297 511)"/><circle class="a" cx="6" cy="6" r="6" transform="translate(329 511)"/><circle class="a" cx="6" cy="6" r="6" transform="translate(361 511)"/><circle class="a" cx="6" cy="6" r="6" transform="translate(393 511)"/><circle class="a" cx="6" cy="6" r="6" transform="translate(233 543)"/><circle class="a" cx="6" cy="6" r="6" transform="translate(265 543)"/><circle class="a" cx="6" cy="6" r="6" transform="translate(297 543)"/><circle class="a" cx="6" cy="6" r="6" transform="translate(329 543)"/><circle class="a" cx="6" cy="6" r="6" transform="translate(361 543)"/><circle class="a" cx="6" cy="6" r="6" transform="translate(393 543)"/><circle class="a" cx="6" cy="6" r="6" transform="translate(233 575)"/><circle class="a" cx="6" cy="6" r="6" transform="translate(265 575)"/><circle class="a" cx="6" cy="6" r="6" transform="translate(297 575)"/><circle class="a" cx="6" cy="6" r="6" transform="translate(329 575)"/><circle class="a" cx="6" cy="6" r="6" transform="translate(361 575)"/><circle class="a" cx="6" cy="6" r="6" transform="translate(393 575)"/><circle class="a" cx="6" cy="6" r="6" transform="translate(233 607)"/><circle class="a" cx="6" cy="6" r="6" transform="translate(265 607)"/><circle class="a" cx="6" cy="6" r="6" transform="translate(297 607)"/><circle class="a" cx="6" cy="6" r="6" transform="translate(329 607)"/><circle class="a" cx="6" cy="6" r="6" transform="translate(361 607)"/><circle class="a" cx="6" cy="6" r="6" transform="translate(393 607)"/><circle class="a" cx="6" cy="6" r="6" transform="translate(233 639)"/><circle class="a" cx="6" cy="6" r="6" transform="translate(265 639)"/><circle class="a" cx="6" cy="6" r="6" transform="translate(297 639)"/><circle class="a" cx="6" cy="6" r="6" transform="translate(329 639)"/><circle class="a" cx="6" cy="6" r="6" transform="translate(361 639)"/><circle class="a" cx="6" cy="6" r="6" transform="translate(393 639)"/></g></svg>