<svg xmlns="http://www.w3.org/2000/svg" width="172" height="140" viewBox="0 0 172 140"><defs><style>.a{fill:rgba(140,38,86,0.15);}</style></defs><g transform="translate(-469 -127)"><circle class="a" cx="6" cy="6" r="6" transform="translate(469 127)"/><circle class="a" cx="6" cy="6" r="6" transform="translate(501 127)"/><circle class="a" cx="6" cy="6" r="6" transform="translate(533 127)"/><circle class="a" cx="6" cy="6" r="6" transform="translate(565 127)"/><circle class="a" cx="6" cy="6" r="6" transform="translate(597 127)"/><circle class="a" cx="6" cy="6" r="6" transform="translate(629 127)"/><circle class="a" cx="6" cy="6" r="6" transform="translate(469 159)"/><circle class="a" cx="6" cy="6" r="6" transform="translate(501 159)"/><circle class="a" cx="6" cy="6" r="6" transform="translate(533 159)"/><circle class="a" cx="6" cy="6" r="6" transform="translate(565 159)"/><circle class="a" cx="6" cy="6" r="6" transform="translate(597 159)"/><circle class="a" cx="6" cy="6" r="6" transform="translate(629 159)"/><circle class="a" cx="6" cy="6" r="6" transform="translate(469 191)"/><circle class="a" cx="6" cy="6" r="6" transform="translate(501 191)"/><circle class="a" cx="6" cy="6" r="6" transform="translate(533 191)"/><circle class="a" cx="6" cy="6" r="6" transform="translate(565 191)"/><circle class="a" cx="6" cy="6" r="6" transform="translate(597 191)"/><circle class="a" cx="6" cy="6" r="6" transform="translate(629 191)"/><circle class="a" cx="6" cy="6" r="6" transform="translate(469 223)"/><circle class="a" cx="6" cy="6" r="6" transform="translate(501 223)"/><circle class="a" cx="6" cy="6" r="6" transform="translate(533 223)"/><circle class="a" cx="6" cy="6" r="6" transform="translate(565 223)"/><circle class="a" cx="6" cy="6" r="6" transform="translate(597 223)"/><circle class="a" cx="6" cy="6" r="6" transform="translate(629 223)"/><circle class="a" cx="6" cy="6" r="6" transform="translate(469 255)"/><circle class="a" cx="6" cy="6" r="6" transform="translate(501 255)"/><circle class="a" cx="6" cy="6" r="6" transform="translate(533 255)"/><circle class="a" cx="6" cy="6" r="6" transform="translate(565 255)"/><circle class="a" cx="6" cy="6" r="6" transform="translate(597 255)"/><circle class="a" cx="6" cy="6" r="6" transform="translate(629 255)"/></g></svg>