<svg xmlns="http://www.w3.org/2000/svg" width="172" height="140" viewBox="0 0 172 140"><defs><style>.a{opacity:0.5;}.b{fill:rgba(85,147,201,0.2);}</style></defs><g class="a" transform="translate(-233 -127)"><circle class="b" cx="6" cy="6" r="6" transform="translate(233 127)"/><circle class="b" cx="6" cy="6" r="6" transform="translate(265 127)"/><circle class="b" cx="6" cy="6" r="6" transform="translate(297 127)"/><circle class="b" cx="6" cy="6" r="6" transform="translate(329 127)"/><circle class="b" cx="6" cy="6" r="6" transform="translate(361 127)"/><circle class="b" cx="6" cy="6" r="6" transform="translate(393 127)"/><circle class="b" cx="6" cy="6" r="6" transform="translate(233 159)"/><circle class="b" cx="6" cy="6" r="6" transform="translate(265 159)"/><circle class="b" cx="6" cy="6" r="6" transform="translate(297 159)"/><circle class="b" cx="6" cy="6" r="6" transform="translate(329 159)"/><circle class="b" cx="6" cy="6" r="6" transform="translate(361 159)"/><circle class="b" cx="6" cy="6" r="6" transform="translate(393 159)"/><circle class="b" cx="6" cy="6" r="6" transform="translate(233 191)"/><circle class="b" cx="6" cy="6" r="6" transform="translate(265 191)"/><circle class="b" cx="6" cy="6" r="6" transform="translate(297 191)"/><circle class="b" cx="6" cy="6" r="6" transform="translate(329 191)"/><circle class="b" cx="6" cy="6" r="6" transform="translate(361 191)"/><circle class="b" cx="6" cy="6" r="6" transform="translate(393 191)"/><circle class="b" cx="6" cy="6" r="6" transform="translate(233 223)"/><circle class="b" cx="6" cy="6" r="6" transform="translate(265 223)"/><circle class="b" cx="6" cy="6" r="6" transform="translate(297 223)"/><circle class="b" cx="6" cy="6" r="6" transform="translate(329 223)"/><circle class="b" cx="6" cy="6" r="6" transform="translate(361 223)"/><circle class="b" cx="6" cy="6" r="6" transform="translate(393 223)"/><circle class="b" cx="6" cy="6" r="6" transform="translate(233 255)"/><circle class="b" cx="6" cy="6" r="6" transform="translate(265 255)"/><circle class="b" cx="6" cy="6" r="6" transform="translate(297 255)"/><circle class="b" cx="6" cy="6" r="6" transform="translate(329 255)"/><circle class="b" cx="6" cy="6" r="6" transform="translate(361 255)"/><circle class="b" cx="6" cy="6" r="6" transform="translate(393 255)"/></g></svg>